<svg id="Capa_1" enable-background="new 0 0 512 512" height="512" viewBox="0 0 512 512" width="512" xmlns="http://www.w3.org/2000/svg"><g><g><path d="m456.969 407.139c27.744-39.712 44.031-88.02 44.031-140.139 0-135.31-109.69-245-245-245s-245 109.69-245 245c0 52.119 16.287 100.427 44.031 140.139z" fill="#510e3c"/></g><g><circle cx="256" cy="232" fill="#3a082d" r="190"/></g><g><path d="m303.109 314.575v-120.825h-94.217v120.825s-102.751 16.92-126.47 37.862c-8.351 7.373-18.17 29.339-27.391 54.702 15.875 22.723 35.504 42.628 57.986 58.818l.368-.56 189.437.972.779-151.712c-.312-.052-.492-.082-.492-.082z" fill="#ff988a"/></g><g><path d="m208.891 314.575s-102.751 16.92-126.469 37.862c-8.351 7.373-18.17 29.339-27.391 54.702 15.875 22.723 35.504 42.628 57.986 58.818l.368-.56 31.789.163c-15.55-47.095-12.13-87.217 42.804-104.974 98.997-32 115.13-98.84 115.13-98.84v-67.996h-94.217z" fill="#f77f72"/></g><g><path d="m91.07 426.843v21.327c7.157 6.519 14.704 12.617 22.599 18.262l-12.035-41.103c-1.75-5.98-10.564-4.716-10.564 1.514z" fill="#e56a61"/></g><g><path d="m436.197 344.941c-18.563-16.39-75.451-29.533-108.323-36.009-8.682-1.711-17.677.346-24.766 5.643s-53.112 124.309-189.44 151.856c40.12 28.684 89.253 45.569 142.332 45.569 87.63 0 164.5-46.016 207.804-115.193-13.888-36.778-22.358-47.232-27.607-51.866z" fill="#fff9eb"/></g><g><path d="m327.874 308.932c-.045-.009-.09-.014-.135-.023-3.449 14.333-12.523 44.015-33.778 76.24-23.225 35.213-65.416 79.386-139.025 105.085 6.736 3.055 13.632 5.821 20.677 8.268 22.344-9.037 42.927-20.191 61.537-33.422 27.564-19.599 50.892-43.712 69.333-71.672 22.768-34.519 32.336-66.035 35.979-81.471-5.199-1.117-10.12-2.125-14.588-3.005z" fill="#f2e1bb"/></g><g><path d="m265.941 480.994c-41.15-3.243-55.187-30.954-33.39-74.278l-.003-.003c-29.334 25.405-68.555 48.728-119.163 58.684 39.972 28.889 89.017 46.026 142.095 46.299 24.557.126 48.288-3.368 70.688-9.978 0 0 45.151-55.668 36.677-67.218-12.584-17.151-55.754 49.737-96.904 46.494z" fill="#f2e1bb"/></g><g><path d="m224.391 455.486c-19.27 13.186-42.204 25.235-69.455 34.749 6.736 3.055 13.632 5.821 20.677 8.268 20.443-8.268 39.393-18.329 56.724-30.111-3.664-3.615-6.326-7.936-7.946-12.906z" fill="#eace98"/></g><g><path d="m420.93 426.843v21.327c-7.157 6.519-14.704 12.617-22.599 18.262l12.035-41.103c1.75-5.98 10.564-4.716 10.564 1.514z" fill="#eace98"/></g><g><path d="m330.471 158.017s9.592-23.354 26.69-17.933-.413 56.031-33.78 59.219z" fill="#ff988a"/></g><g><path d="m181.529 158.017s-9.592-23.354-26.69-17.933.413 56.031 33.78 59.219z" fill="#f77f72"/></g><g><path d="m343.597 146.754c0 64.505-39.219 140.155-87.597 140.155s-87.597-75.651-87.597-140.155 39.218-110.884 87.597-110.884 87.597 46.38 87.597 110.884z" fill="#ffa88d"/></g><g><circle cx="256" cy="120.57" fill="#f94a38" r="10"/></g><g><path d="m198.403 146.754c0-57.685 31.366-100.869 72.597-109.357-4.874-1.003-9.885-1.528-15-1.528-48.379 0-87.597 46.38-87.597 110.885s39.218 140.156 87.597 140.156c5.115 0 10.126-.854 15-2.443-41.231-13.438-72.597-80.028-72.597-137.713z" fill="#ff988a"/></g><g><path d="m277.661 2.176-21.661 108.271s24.287 34.747 88.771 34.747h6.368c7.034 0 12.736-5.702 12.736-12.736v-24.582c0-52.159-37.017-95.671-86.214-105.7z" fill="#fcf1d4"/></g><g><g><path d="m363.875 107.875v12.694c-55.652-3.877-76.948-34.341-76.948-34.341-20.372-24.809-23.537-62.233-23.177-85.948 55.96 3.973 100.125 50.624 100.125 107.595z" fill="#f2e1bb"/></g></g><g><g><path d="m362.476 90.505c-32.031-10.003-44.964-28.494-44.964-28.494-12.594-15.336-18.608-35.493-21.283-54.252 34.482 13.868 60.141 45.028 66.247 82.746z" fill="#eace98"/></g></g><g><path d="m277.661 2.176c-6.998-1.426-14.242-2.176-21.661-2.176-59.578 0-107.875 48.297-107.875 107.875v24.582c0 7.034 5.702 12.736 12.736 12.736h6.368c64.484 0 88.771-34.747 88.771-34.747 31.818-38.747 21.661-108.27 21.661-108.27z" fill="#fff9eb"/></g><g><g><path d="m148.125 107.875v12.694c55.652-3.877 76.949-34.341 76.949-34.341 20.371-24.809 23.536-62.233 23.176-85.948-55.96 3.973-100.125 50.624-100.125 107.595z" fill="#fcf1d4"/></g></g><g><g><path d="m149.524 90.505c32.031-10.003 44.964-28.494 44.964-28.494 12.594-15.336 18.608-35.493 21.283-54.252-34.482 13.868-60.141 45.028-66.247 82.746z" fill="#f2e1bb"/></g></g><g><path d="m336.902 195.174s-6.238 17.559-18.173 23.438c-4.944 2.435-8.603 5.141-11.637 8.271-3.164-16.314-13.21-27.373-22.304-28.99-11.489-2.043-18.638 2.321-28.787 2.321s-17.298-4.363-28.787-2.321c-9.094 1.617-19.141 12.676-22.304 28.99-3.034-3.131-6.693-5.836-11.637-8.271-11.935-5.879-18.173-23.438-18.173-23.438s-4.996 30.015 21.657 72.737c.666 1.067 2.251.963 2.757-.188l1.33-3.024s6.331 14.878 24.108 28.787c1.091.854 2.679-.042 2.514-1.418l-.491-4.084-.001-.006c14.461 15.567 26.079 19.978 28.544 20.783.316.103.651.103.967 0 2.465-.805 14.083-5.216 28.544-20.783l-.001.006-.491 4.084c-.165 1.376 1.423 2.271 2.514 1.418 17.777-13.909 24.108-28.787 24.108-28.787l1.33 3.024c.506 1.151 2.092 1.255 2.757.188 26.651-42.722 21.656-72.737 21.656-72.737zm-73.398 54.215c-4.352-3.52-10.655-3.52-15.007 0-3.31 2.677-7.036 4.046-10.777 4.421-5.743.575-9.173-6.282-5.381-10.634l13.124-15.061c5.571-6.393 15.505-6.393 21.077 0l13.124 15.061c3.792 4.352.362 11.209-5.381 10.634-3.744-.375-7.469-1.744-10.779-4.421z" fill="#fcf1d4"/></g><g><path d="m237.719 253.81c-5.743.575-9.173-6.282-5.381-10.633l3.214-3.688c-7.172-4.422-19.012-13.436-25.13-27.579-2.451 4.238-4.408 9.277-5.513 14.975-3.034-3.131-6.693-5.836-11.637-8.271-11.935-5.879-18.173-23.438-18.173-23.438s-4.996 30.015 21.657 72.737c.666 1.067 2.251.963 2.757-.188l1.33-3.024s6.331 14.878 24.108 28.787c1.091.854 2.679-.042 2.514-1.418l-.491-4.084-.001-.006c14.461 15.567 26.079 19.978 28.544 20.783-24.803-27.431-17.798-54.953-17.798-54.953z" fill="#f2e1bb"/></g></g></svg>